<?xml version="1.0" encoding="UTF-8" standalone="no"?>
<!DOCTYPE svg PUBLIC "-//W3C//DTD SVG 1.1//EN" "http://www.w3.org/Graphics/SVG/1.1/DTD/svg11.dtd">
<svg width="98px" height="98px" viewBox="0 0 98 98" xmlns="http://www.w3.org/2000/svg">
    <defs></defs>
    <g stroke="none" stroke-width="1" fill="none" fill-rule="evenodd">
        <g transform="translate(-1.000000, -1.000000)" fill="#000000">
            <path d="M50,1 C22.938,1 1,22.938 1,50 C1,77.062 22.938,99 50,99 C77.062,99 99,77.062 99,50 C99,22.938 77.062,1 50,1 Z M79.099,79.099 C77.512,80.686 75.778,82.069 73.926,83.25 C65.229,89.39 54.951,92.378 44.36,91.549 C36.967,90.976 29.656,88.478 23.484,84.089 C21.326,82.594 18.604,80.384 16.595,78.374 L16.596,78.374 C15.208,76.99 13.989,75.463 12.952,73.75 C12.952,61.479 23.1,51.042 35.3,51.042 C37.962,51.042 40.673,51.609 43.136,52.791 C45.416,48.159 50.394,45 55.9,45 C61.406,45 66.384,48.159 68.664,52.791 C71.127,51.609 73.838,51.042 76.5,51.042 C88.7,51.042 98.848,61.479 98.848,73.75 C97.811,75.463 96.592,76.99 95.204,78.374 C95.204,78.374 87.738,85.864 79.099,79.099 Z"></path>
        </g>
    </g>
</svg>
